# xmcd
#
# Track frame offsets:
#	150
#	16212
#	33502
#	66437
#
# Disc length: 1234 seconds
#
# Revision: 1
# Processed by: cddbd v1.5.2PL0 Copyright (c) Steve Scherf et al.
# Submitted via: audiograbber 1.80
#
DISCID=2e04d004
DTITLE=fortyfive degrees - no one in this world
DYEAR=1900
DGENRE=
TTITLE0=no one in this world
TTITLE1=no one in this world
TTITLE2=no one in this world
TTITLE3=no one in this world
EXTD=
EXTT0=
EXTT1=
EXTT2=
EXTT3=
PLAYORDER=
